<?xml version="1.0" encoding="utf-8" ?><svg xmlns="http://www.w3.org/2000/svg" xmlns:xlink="http://www.w3.org/1999/xlink" width="1024" height="1024" viewBox="0 0 1024 1024"><path fill="#1E1F23" d="M352.022 388.755C358.211 382.985 364.273 377.283 370.86 371.96C417.65 334.001 477.741 316.458 537.604 323.28C580.274 327.856 624.127 346.336 657.234 373.775C661.587 377.383 669.387 384.256 672.818 388.511C674.883 386.264 677.033 383.679 679.051 381.355C678.553 373.929 678.095 371.11 683.988 365.936C687.748 365.176 688.688 365.005 692.522 365.051C698.299 367.11 699.956 369.318 701.824 375.13C701.254 376.84 700.611 378.978 699.945 380.612C737.61 419.736 769.656 487.908 771.679 542.667C772.296 547.068 773.021 556.513 772.842 560.94C772.994 564.15 773.31 567.552 772.833 570.709C772.115 571.47 772.442 571.336 771.553 571.653C769.772 571.928 766.488 571.668 764.556 571.593C764.731 562.196 763.647 548.91 762.683 539.526C757.734 491.325 740.477 448.218 712.387 408.864C708.101 402.86 698.888 390.083 693.323 385.666C690.501 385.582 688.15 385.548 685.333 385.155C682.893 387.308 680.159 390.555 677.552 393.017C723.22 440.467 746.656 502.112 746.316 567.625C746.308 569.127 746.306 570.059 745.465 571.343L743.928 571.747C743.267 571.686 738.175 571.496 738.176 570.755C738.241 524.038 726.873 478.467 702.31 438.509C693.528 424.223 684.589 411.451 672.729 399.492C669.309 403.182 662.952 408.788 659.066 412.55C662.22 413.903 667.055 420.582 669.479 423.459C701.653 461.645 718.817 510.004 719.719 559.769C719.782 563.275 720.219 567.231 719.77 570.658C719.706 571.177 718.437 571.298 718.014 571.315C716.002 571.326 713.991 571.356 711.98 571.405C712.287 544.065 707.727 516.888 698.511 491.145C680.12 440.503 642.632 396.262 593.5 373.336C551.172 353.172 502.872 349.416 457.936 362.794C453.755 364.035 449.341 365.371 445.288 366.989C441.479 368.51 435.874 371.88 432.256 373.14L431.615 373.357L430.855 373.86C426.724 376.56 420.696 379.392 416.274 382.048C410.798 385.337 405.924 388.49 400.795 392.311C359.096 423.669 330.209 469.108 319.509 520.173C317.163 530.946 315.053 545.72 314.449 556.752C314.469 559.723 315.385 570.548 313.002 571.807C311.229 571.509 308.399 571.53 306.52 571.484C305.734 508.778 324.486 460.262 365.338 413.071C361.983 408.875 357.036 403.941 353.262 399.979C322.774 433.262 304.145 468.363 294.068 512.598C291.755 522.491 290.655 529.896 289.333 540.023C289.013 544.262 288.128 570.591 287.521 571.525L285.911 571.948C284.122 571.842 281.841 571.922 280.009 571.931C279.527 503.736 300.128 443.86 347.406 393.859C344.92 390.919 342.837 388.566 340.16 385.806C337.236 385.988 335.512 386.156 332.555 385.817C329.193 388.526 325.542 393.538 322.774 396.881C308.272 414.399 296.407 433.843 287.164 454.61C286.348 456.445 284.903 459.977 283.85 461.444C276.754 478.84 270.746 495.685 267.274 514.201C266.842 516.506 266.324 519.338 265.705 521.574C265.092 526.019 264.522 530.647 263.752 535.054C263.143 542.303 262.053 550.374 261.86 557.501C261.601 561.072 262.175 570.118 260.573 571.884L259.538 572.21C257.145 572.104 256.187 572.14 253.911 571.541C253.058 569.891 253.105 567.991 253.077 566.142C252.098 502.338 280.93 426.29 325.636 380.454C323.326 367.019 329.196 364.069 341.485 365.953C347.858 370.89 347.579 373.219 345.66 380.633C347.752 383.362 349.873 386.07 352.022 388.755ZM357.051 394.083C361.033 398.327 365.997 404.775 369.635 408.367C408.149 369.938 457.178 348.458 511.745 348.479C514.974 348.478 518.204 348.522 521.432 348.612C573.829 352.114 617.448 370.827 655.097 407.74L668.258 394.323C631.331 357.831 583.355 333.773 531.38 329.293C523.464 328.611 511.849 327.192 503.962 328.199C492.109 329.29 479.973 330.296 468.426 332.814C431.835 340.795 397.134 359.487 368.878 383.869C364.992 387.222 361.043 390.89 357.051 394.083Z"/><path fill="#C74B75" d="M313.022 551.55C312.772 546.167 314.463 536.21 315.294 530.711C324.274 471.326 360.413 414.142 412.139 383.008C417.429 379.824 425.622 374.506 431.615 373.357L430.855 373.86C426.724 376.56 420.696 379.392 416.274 382.048C410.798 385.337 405.924 388.49 400.795 392.311C359.096 423.669 330.209 469.108 319.509 520.173C317.163 530.946 315.053 545.72 314.449 556.752L313.905 556.295C313.901 554.695 313.862 553.582 313.727 551.988L313.022 551.55Z"/><path fill="#CF547E" d="M692.522 365.051C698.299 367.11 699.956 369.318 701.824 375.13C701.254 376.84 700.611 378.978 699.945 380.612C737.61 419.736 769.656 487.908 771.679 542.667L770.27 540.879L769.252 541.471C768.716 538.697 768.235 533.115 767.842 530.09C766.897 522.556 765.633 515.065 764.055 507.638C753.355 458.925 730.529 418.012 698.047 380.703L699.852 375.539C698.212 369.748 697.077 368.627 692.522 365.051Z"/><path fill="#C74B75" d="M743.928 571.747C743.315 559.975 743.579 548.481 742.347 536.682C737.759 492.741 720.956 452.199 695.248 416.535C692.738 413.052 676.902 394.235 676.774 393.643L677.552 393.017C723.22 440.467 746.656 502.112 746.316 567.625C746.308 569.127 746.306 570.059 745.465 571.343L743.928 571.747Z"/><path fill="#CF547E" d="M659.066 412.55C662.22 413.903 667.055 420.582 669.479 423.459C701.653 461.645 718.817 510.004 719.719 559.769C719.782 563.275 720.219 567.231 719.77 570.658C719.706 571.177 718.437 571.298 718.014 571.315C717.617 570.399 717.1 544.466 716.601 540.153C712.353 503.418 699.705 469.111 678.752 438.621C676.118 434.788 659.171 413.35 659.066 412.55Z"/><path fill="#CF547E" d="M292.652 508.461C292.666 508.329 292.68 508.198 292.694 508.066C300.687 472.774 318.221 438.035 341.392 410.328C343.565 407.73 349.817 400.365 352.149 398.778L352.975 398.996L353.262 399.979C322.774 433.262 304.145 468.363 294.068 512.598C293.981 511.465 293.859 510.335 293.701 509.209L292.652 508.461Z"/><path fill="#C74B75" d="M280.464 463.874C291.112 438.889 303.771 417.113 320.755 395.877C323.153 392.879 327.013 387.364 330.444 385.396C331.097 385.022 331.613 385.463 332.555 385.817C329.193 388.526 325.542 393.538 322.774 396.881C308.272 414.399 296.407 433.843 287.164 454.61C286.348 456.445 284.903 459.977 283.85 461.444C282.184 462.412 281.849 462.577 280.464 463.874Z"/><path fill="#C74B75" d="M280.464 463.874C281.849 462.577 282.184 462.412 283.85 461.444C276.754 478.84 270.746 495.685 267.274 514.201C266.842 516.506 266.324 519.338 265.705 521.574L263.279 522.242C265.434 505.67 273.809 479.227 280.464 463.874Z"/><path fill="#C74B75" d="M285.911 571.948C286.042 560.346 286.18 546.846 287.918 535.338C288.185 537.538 288.074 538.322 289.333 540.023C289.013 544.262 288.128 570.591 287.521 571.525L285.911 571.948Z"/><path fill="#CF547E" d="M292.652 508.461L293.701 509.209C293.859 510.335 293.981 511.465 294.068 512.598C291.755 522.491 290.655 529.896 289.333 540.023C288.074 538.322 288.185 537.538 287.918 535.338C288.18 528.986 290.83 514.625 292.652 508.461Z"/><path fill="#C74B75" d="M260.039 552.688C259.676 548.677 261.245 536.67 261.749 532.242L263.752 535.054C263.143 542.303 262.053 550.374 261.86 557.501L261.082 556.746L260.631 558.538C260.66 556.132 260.642 555.008 260.039 552.688Z"/><path fill="#C74B75" d="M769.252 541.471L770.27 540.879L771.679 542.667C772.296 547.068 773.021 556.513 772.842 560.94L772.406 560.834C771.614 558.368 771.366 555.923 770.07 553.786L769.252 541.471Z"/><path fill="#CF547E" d="M770.07 553.786C771.366 555.923 771.614 558.368 772.406 560.834L772.842 560.94C772.994 564.15 773.31 567.552 772.833 570.709C772.115 571.47 772.442 571.336 771.553 571.653L770.707 571.422C769.697 569.795 770.063 556.556 770.07 553.786Z"/><path fill="#C74B75" d="M313.022 551.55L313.727 551.988C313.862 553.582 313.901 554.695 313.905 556.295L314.449 556.752C314.469 559.723 315.385 570.548 313.002 571.807C311.92 567.879 312.588 555.867 313.022 551.55Z"/><path fill="#CF547E" d="M260.039 552.688C260.642 555.008 260.66 556.132 260.631 558.538L261.082 556.746L261.86 557.501C261.601 561.072 262.175 570.118 260.573 571.884L259.538 572.21C259.321 565.698 259.489 559.18 260.039 552.688Z"/><path fill="#CF547E" d="M263.279 522.242L265.705 521.574C265.092 526.019 264.522 530.647 263.752 535.054L261.749 532.242L263.279 522.242Z"/><path fill="#1E1F23" d="M413.377 440.415C444.926 413.49 476.891 400.779 519.322 401.957C549.153 402.786 591.381 418.652 611.561 441.039C622.38 437.215 631.651 443.849 626.761 455.592L627.054 455.916C655.452 487.603 667.834 529.921 665.702 571.995L658.697 571.529C660.07 529.637 647.268 494.014 621.38 461.368C616.669 461.737 614.802 460.986 611.391 461.077C609.618 464.625 606.988 466.955 604.106 469.639C608.747 473.822 612.469 479.178 615.956 484.354C630.202 505.075 638.446 529.328 639.779 554.438C639.93 557.468 640.695 568.414 639.329 571.241C639.116 571.681 638.375 571.865 637.842 572.089C637.37 572.065 632.831 571.832 632.817 571.309C631.731 532.8 623.715 505.843 598.533 475.183C597.752 476.015 596.811 476.893 595.986 477.7C594.344 479.758 592.53 481.801 590.945 483.81C592.404 488.805 592.807 490.019 592.017 495.328C607.67 518.291 614.906 540.798 613.945 568.914C613.897 570.317 613.047 571.041 611.963 571.661C603.789 572.488 605.304 570.174 605.479 562.998C606.039 540.121 598.964 518.515 585.7 499.976C571.678 502.169 570.669 495.519 570.877 484.226C561.287 473.368 538.361 463.673 523.953 461.639C496.514 457.766 475.237 467.907 453.769 483.536C458.668 492.721 451.578 501.84 440.835 498.59C438.611 503.572 434.512 508.2 432.059 513.086C426.179 524.799 422.771 537.354 421.177 550.348C420.684 554.177 420.582 558.479 420.086 562.029C420.228 565.629 421.034 569.288 418.821 571.753L416.988 572.117C415.352 572.129 414.264 572.344 412.934 571.455C412.002 570.008 411.726 569.229 411.691 567.444C411.213 543.157 418.262 513.06 434.881 494.664C434.361 493.791 433.917 492.875 433.556 491.925C432.305 488.576 432.987 485.782 434.329 482.658C431.853 479.954 429.291 477.329 426.646 474.788C422.817 480.521 418.54 485.611 414.745 491.53C399.785 514.862 393.628 542.811 393.403 570.275C393.396 571.142 392.765 571.491 392.137 571.833L386.436 571.652C386.162 568.533 386.022 565.404 386.014 562.273C385.857 530.373 399.118 492.344 421.694 469.491C419.933 467.691 413.372 459.567 411.233 459.945C408.299 460.462 408.367 460.918 404.749 460.126C396.651 471.745 389.555 482.039 383.5 494.564C371.567 519.249 367.507 543.876 367.435 570.994C367.433 571.979 366.673 571.939 365.995 572.106C364.069 572.107 362.304 572.362 360.763 571.299C358.717 568.219 359.924 557.278 360.16 553.029C361.579 526.006 369.667 499.756 383.702 476.62C388.147 469.426 393.712 462.776 397.878 455.623C398.959 453.175 396.498 448.797 397.375 446.305C400.057 438.681 407.239 439.047 413.377 440.415ZM418.883 445.358C419.696 449.395 420.227 451.784 417.925 455.627C420.701 458.435 423.598 461.255 426.093 464.304C452.232 440.745 476.722 429.067 512.586 428.266C545.73 429.24 575.367 440.745 599.121 464.326L606.459 457.629C605.516 452.234 604.908 450.927 606.792 445.869C585.542 426.851 557.164 412.466 528.707 409.162C524.514 408.675 518.332 407.792 514.189 408.224C474.894 409.543 448.695 419.952 418.883 445.358ZM506.262 434.669C473.736 436.934 454.738 449.586 431.005 469.694C434.774 473.366 435.651 474.456 438.575 479.097C442.688 477.749 444.299 477.863 448.575 478.667C466.045 466.05 480.705 457.247 502.874 455.072C508.201 454.549 513.55 454.155 518.884 454.93C537.024 455.965 564.302 465.213 576.383 479.225C579.961 478.78 582.935 478.313 586.549 478.428C589.338 475.072 591.01 473.197 593.077 469.383C572.556 448.556 542.355 434.637 512.901 434.48C510.686 434.471 508.472 434.534 506.262 434.669Z"/><path fill="#CF547E" d="M365.995 572.106C365.46 568.649 365.536 564.707 365.592 561.225C366.136 527.413 377.312 494.133 397.597 467.044C399.085 465.057 401.534 460.677 403.739 459.702L404.749 460.126C396.651 471.745 389.555 482.039 383.5 494.564C371.567 519.249 367.507 543.876 367.435 570.994C367.433 571.979 366.673 571.939 365.995 572.106Z"/><path fill="#C74B75" d="M602.59 470.254C605.251 467.315 608.427 463.591 611.391 461.077C609.618 464.625 606.988 466.955 604.106 469.639C608.747 473.822 612.469 479.178 615.956 484.354C630.202 505.075 638.446 529.328 639.779 554.438C639.93 557.468 640.695 568.414 639.329 571.241C639.116 571.681 638.375 571.865 637.842 572.089C639.092 531.707 629.198 501.165 602.59 470.254Z"/><path fill="#C74B75" d="M392.137 571.833C391.352 564.146 392.022 553.044 393.054 545.575C396.149 523.192 404.156 502.78 417.462 484.471C419.562 481.581 422.981 476.656 425.765 474.584L426.646 474.788C422.817 480.521 418.54 485.611 414.745 491.53C399.785 514.862 393.628 542.811 393.403 570.275C393.396 571.142 392.765 571.491 392.137 571.833Z"/><path fill="#CF547E" d="M588.964 483.677C591.456 481.371 593.229 479.689 595.986 477.7C594.344 479.758 592.53 481.801 590.945 483.81C592.404 488.805 592.807 490.019 592.017 495.328C607.67 518.291 614.906 540.798 613.945 568.914C613.897 570.317 613.047 571.041 611.963 571.661C610.975 571.056 611.664 559.508 611.563 557.345C610.463 533.893 603.574 514.2 589.764 495.479C591.409 489.979 591.585 488.658 588.964 483.677Z"/><path fill="#CF547E" d="M418.448 555.403C418.106 544.199 430.229 501.794 440.835 498.59C438.611 503.572 434.512 508.2 432.059 513.086C426.179 524.799 422.771 537.354 421.177 550.348C420.684 554.177 420.582 558.479 420.086 562.029C418.981 560.271 419.576 558.419 418.448 555.403Z"/><path fill="#C74B75" d="M418.448 555.403C419.576 558.419 418.981 560.271 420.086 562.029C420.228 565.629 421.034 569.288 418.821 571.753L416.988 572.117C418.608 568.935 417.555 560.367 418.448 555.403Z"/><path fill="#1E1F23" d="M464.616 381.41C502.154 371.615 531.901 373.058 568.797 384.054C577.573 378.811 584.959 378.571 589.833 388.757L588.731 393.844C602.633 399.967 619.474 410.659 630.232 421.442C636.123 426.017 643.589 433.909 648.421 439.633C673.361 469.172 687.505 505.424 691.787 543.666C692.368 548.852 694.283 566.585 692.989 570.712C692.019 571.551 692.424 571.344 691.254 571.786C689.095 571.725 687.29 571.889 685.366 570.997C684.928 569.161 684.699 554.482 684.472 551.194C683.837 542.031 682.545 534.325 680.672 525.304C670.743 477.919 642.637 436.314 602.385 409.414C599.798 407.72 588.259 400.426 586.392 400.536C577.277 401.07 569.493 407.099 566.93 391.086C534.801 379.235 499.668 378.274 466.94 388.351C466.621 389.233 466.268 390.103 465.883 390.959C461.758 400.11 453.693 399.946 445.857 395.998L443.064 397.324L442.637 397.627C433.25 404.179 424.088 408.111 414.113 415.784C379.211 443.045 354.893 481.611 345.337 524.854C343.485 534.209 342.224 543.67 341.563 553.183C341.271 557.668 341.095 567.006 340.471 570.981C339.393 571.537 339.91 571.371 338.952 571.568C337.404 572.069 334.53 571.908 332.79 571.903C333.093 564.83 332.935 557.721 333.364 550.681C334.5 531.526 338.584 512.66 345.472 494.75C363.545 447.923 397.379 409.976 443.526 389.561C443.449 385.594 443.702 383.154 446.598 380.137C448.893 377.781 452.074 376.502 455.361 376.613C459.979 376.751 461.725 378.399 464.616 381.41Z"/><path fill="#CF547E" d="M343.528 523.453C343.651 520.287 345.463 514.892 346.397 511.729C359.004 469.057 386.303 430.571 424.405 407.059C429.977 403.62 436.808 399.085 443.064 397.324L442.637 397.627C433.25 404.179 424.088 408.111 414.113 415.784C379.211 443.045 354.893 481.611 345.337 524.854C344.734 524.185 344.289 523.978 343.528 523.453Z"/><path fill="#C74B75" d="M630.232 421.442C636.123 426.017 643.589 433.909 648.421 439.633C673.361 469.172 687.505 505.424 691.787 543.666C692.368 548.852 694.283 566.585 692.989 570.712C692.019 571.551 692.424 571.344 691.254 571.786C690.811 569.063 690.909 564.58 690.886 561.738C690.509 516.456 673.671 470.933 643.74 436.869C640.639 433.34 631.706 425.062 630.232 421.442Z"/><path fill="#CF547E" d="M343.528 523.453C344.289 523.978 344.734 524.185 345.337 524.854C343.485 534.209 342.224 543.67 341.563 553.183C341.271 557.668 341.095 567.006 340.471 570.981C339.393 571.537 339.91 571.371 338.952 571.568C338.38 559.208 340.375 535.454 343.528 523.453Z"/><path fill="#1E1F23" d="M522.022 629.004C527.726 628.667 539.857 628.715 545.681 628.847C557.217 629.108 573.689 627.523 584.242 631.136C588.52 633.08 592.187 636.595 593.688 641.077C598.14 654.368 595.089 668.598 581.315 674.444C584.469 678.376 596.096 693.099 597.358 697.097C596.284 697.992 596.83 697.605 594.88 697.614C589.618 697.673 584.354 697.644 579.093 697.526C575.248 693.577 566.901 680.408 563.286 675.077C557.515 675.072 543.171 675.433 538.078 674.734C538.684 677.675 539.126 694.098 538.037 696.649L537.056 697.224C531.864 697.326 526.672 697.336 521.48 697.253C522.636 675.584 520.326 650.856 522.022 629.004ZM537.921 662.482C545.76 661.818 570.853 664.16 575.455 659.919C577.667 657.881 577.917 654.863 577.975 652.019C578.025 649.585 577.606 646.058 575.558 644.395C570.675 640.429 544.947 642.28 538.04 642.651C538.252 646.893 539.05 658.91 537.921 662.482Z"/><path fill="#CF547E" d="M584.242 631.136C588.52 633.08 592.187 636.595 593.688 641.077C598.14 654.368 595.089 668.598 581.315 674.444C584.469 678.376 596.096 693.099 597.358 697.097C596.284 697.992 596.83 697.605 594.88 697.614C594.442 693.136 582.338 678.661 578.927 673.373C588.931 670.289 592.55 664.024 592.742 653.833C592.942 643.253 591.508 638.848 584.242 631.136Z"/><path fill="#C74B75" d="M537.056 697.224C535.915 694.744 536.095 678.014 536.851 675.303L538.078 674.734C538.684 677.675 539.126 694.098 538.037 696.649L537.056 697.224Z"/><path fill="#CF547E" d="M537.921 662.482L536.948 662.265C536.069 660.243 536.126 645.314 536.905 642.935L538.04 642.651C538.252 646.893 539.05 658.91 537.921 662.482Z"/><path fill="#1E1F23" d="M402.457 628.971C407.253 628.759 411.097 628.876 416.053 628.459C418.323 628.978 417.649 628.361 418.609 629.84C419.741 649.715 417.951 671.543 418.527 691.602C418.607 694.385 416.425 696.01 414.039 696.909C409.35 698.088 397.587 698.931 393.812 695.304C389.454 691.117 386.086 685.347 382.441 680.503C373.527 668.658 365.64 655.167 356.507 643.566C356.618 649.639 357.981 695.425 356.152 696.995C355.901 697.211 355.62 697.391 355.354 697.589C351.262 696.89 344.957 697.311 340.596 697.393C339.492 677.382 340.866 655.096 340.803 634.929C340.774 625.637 356.373 629.721 362.215 629.238C365.292 628.983 368.935 633.385 370.514 635.663C381.682 650.486 391.27 667.278 402.264 682.067C402.151 664.368 402.215 646.668 402.457 628.971Z"/><path fill="#C74B75" d="M416.053 628.459C418.323 628.978 417.649 628.361 418.609 629.84C419.741 649.715 417.951 671.543 418.527 691.602C418.607 694.385 416.425 696.01 414.039 696.909C414.526 695.702 416.484 693.222 416.408 692.169C415.871 684.742 418.092 631.45 416.053 628.459Z"/><path fill="#C74B75" d="M355.354 697.589C353.615 689.008 355.21 656.114 355.085 645.575C355.069 644.239 355.66 644.135 356.507 643.566C356.618 649.639 357.981 695.425 356.152 696.995C355.901 697.211 355.62 697.391 355.354 697.589Z"/><path fill="#1E1F23" d="M643.677 629.174C648.741 628.283 654.146 628.589 659.214 629.29C660.979 629.956 663.727 630.961 664.74 632.578C672.61 645.146 679.475 661.044 686.234 674.336L694.29 690.022C695.123 691.629 697.761 695.918 697.611 697.404C696.582 697.908 696.643 697.848 695.496 697.671L679.629 697.487C677.153 693.609 674.318 687.675 672.154 683.464C664.936 682.533 641.554 683.081 633.07 683.116C630.313 687.878 628.567 692.745 625.479 697.798C619.713 697.101 612.858 697.36 606.971 697.436C608.289 694.233 610 690.755 611.599 687.663C621.015 669.463 629.933 650.881 640.112 633.101C640.926 631.68 642.466 630.255 643.677 629.174ZM652.488 671.253C657.034 671.348 661.582 671.393 666.13 671.391C663.196 666.213 654.681 645.994 651.771 643.762C647.077 652.781 643.104 662.278 638.463 671.154C643.137 671.238 647.812 671.271 652.488 671.253Z"/><path fill="#CF547E" d="M659.214 629.29C660.979 629.956 663.727 630.961 664.74 632.578C672.61 645.146 679.475 661.044 686.234 674.336L694.29 690.022C695.123 691.629 697.761 695.918 697.611 697.404C696.582 697.908 696.643 697.848 695.496 697.671C694.136 692.728 683.569 673.607 680.694 668.403C674.381 656.974 667.235 638.919 659.214 629.29Z"/><path fill="#1E1F23" d="M855.413 697.966C839.216 697.17 822.894 699.097 806.747 696.983C795.489 695.509 789.679 683.302 789.793 673.024C789.93 660.619 787.59 645.179 796.9 635.423C805.618 626.287 822.213 628.683 833.874 628.863C841.444 628.918 849.014 628.884 856.583 628.76L857.941 628.968C859.667 631.354 858.864 638.953 858.565 641.987C857.821 642.894 857.869 642.822 856.727 643.131C853.152 642.443 816.232 641.422 811.146 644.454C808.544 646.005 807.588 652.864 807.358 656.334C817.564 656.475 827.772 656.518 837.98 656.461C843.753 656.464 852.609 656.186 858.109 657.225C857.959 661.066 857.879 665.185 857.641 669.003C840.701 669.197 823.758 669.195 806.818 668.997C807.555 675.883 807.365 679.405 813.483 683.477C823.639 683.856 847.626 684.549 857.414 683.71C858.042 683.922 859.004 684.012 859.118 684.649C859.885 688.961 862.082 698.133 855.413 697.966Z"/><path fill="#CF547E" d="M857.414 683.71C858.042 683.922 859.004 684.012 859.118 684.649C859.885 688.961 862.082 698.133 855.413 697.966C858.131 696.068 857.324 687.223 857.414 683.71Z"/><path fill="#CF547E" d="M856.583 628.76L857.941 628.968C859.667 631.354 858.864 638.953 858.565 641.987C857.821 642.894 857.869 642.822 856.727 643.131C856.303 638.972 856.523 633.063 856.583 628.76Z"/><path fill="#1E1F23" d="M167.065 684.057C183.386 683.69 199.772 684.312 216.066 683.867C222.077 683.702 221.874 670.896 217.225 669.716C205.763 666.282 181.265 672.991 171.844 664.936C163.097 657.458 164.203 631.427 180.105 629.493C197.58 627.368 214.629 630.14 231.312 628.756L231.801 628.712L233.172 629.078C234.474 631.39 233.796 638.968 233.529 641.731C232.778 642.854 233.292 642.561 232.089 642.837C228.956 642.544 225.773 642.556 222.627 642.599C210.433 642.764 198.148 642.443 185.965 642.827C182.293 648.032 182.865 651.028 186.64 656.157C193.744 657.431 217.805 655.444 221.844 656.901C240.532 657.485 240.535 685.681 231.558 693.615C229.011 695.86 225.737 697.106 222.342 697.124C217.888 698.37 172.921 697.575 166.986 697.497L167.065 684.057Z"/><path fill="#CF547E" d="M221.844 656.901C240.532 657.485 240.535 685.681 231.558 693.615C229.011 695.86 225.737 697.106 222.342 697.124C222.527 697.062 222.711 697 222.896 696.938L223.719 696.642C233.323 693.263 235.394 684.086 234.83 675.017C234.182 664.582 231.636 660.28 221.844 656.901Z"/><path fill="#CF547E" d="M186.64 656.157C179.351 654.05 179.413 644.562 185.965 642.827C182.293 648.032 182.865 651.028 186.64 656.157Z"/><path fill="#C74B75" d="M231.801 628.712L233.172 629.078C234.474 631.39 233.796 638.968 233.529 641.731C232.778 642.854 233.292 642.561 232.089 642.837C231.451 640.078 231.746 631.96 231.801 628.712Z"/><path fill="#1E1F23" d="M776.951 697.459L745.903 697.586C712.731 697.641 705.794 695.347 705.966 660.419C706.123 628.679 721.946 628.062 748.771 628.857C756.451 629.084 766.111 629.174 773.639 628.865C774.356 629.088 775.755 629.281 776.017 629.964C777.327 633.388 777.173 637.63 776.25 641.136C775.898 642.472 774.806 642.566 773.604 642.734C766.217 642.015 737.524 642.264 730.44 643.366C726.629 646.191 723.137 648.278 723.085 653.563C722.996 662.606 720.778 676.017 728.144 682.657C735.577 684.284 745.806 683.826 753.551 683.807C761.444 683.764 769.337 683.874 777.227 684.138C777.059 688.576 776.967 693.017 776.951 697.459Z"/><path fill="#C74B75" d="M728.144 682.657C719.316 680.484 720.559 668.208 720.515 660.996C720.466 652.917 721.171 644.71 730.44 643.366C726.629 646.191 723.137 648.278 723.085 653.563C722.996 662.606 720.778 676.017 728.144 682.657Z"/><path fill="#CF547E" d="M773.639 628.865C774.356 629.088 775.755 629.281 776.017 629.964C777.327 633.388 777.173 637.63 776.25 641.136C775.898 642.472 774.806 642.566 773.604 642.734C774.01 638.529 774.137 633.044 773.639 628.865Z"/><path fill="#1E1F23" d="M246.338 629.102C252.007 628.666 258.319 628.902 264.051 628.979C271.366 637.359 280.071 652.452 286.837 662.124C294.224 652.434 300.827 642.171 308.196 632.463C311.244 628.447 313.353 628.883 318.032 628.96C320.961 629.008 323.789 629.141 326.704 628.776L328.373 629.185L328.566 630.013C318.196 645.534 306.262 661.554 295.509 677.146C295.492 680.296 295.616 684.836 295.442 687.867C295.572 690.863 295.931 694.061 295.245 696.923C294.24 697.842 294.815 697.491 293.352 697.712C289.638 697.167 282.504 697.432 278.517 697.472C278.267 690.464 278.439 682.457 278.426 675.372C274.714 671.152 268.158 661.404 264.699 656.42C258.831 647.963 251.296 637.927 246.338 629.102Z"/><path fill="#CF547E" d="M326.704 628.776L328.373 629.185L328.566 630.013C318.196 645.534 306.262 661.554 295.509 677.146C295.492 680.296 295.616 684.836 295.442 687.867C294.665 688.104 295.056 687.901 294.333 688.586C294.056 687.631 293.756 686.67 293.467 685.718C293.225 683.337 293.443 678.131 293.481 675.522L314.253 646.785C317.867 641.772 323.779 633.973 326.704 628.776Z"/><path fill="#C74B75" d="M293.467 685.718C293.756 686.67 294.056 687.631 294.333 688.586C295.056 687.901 294.665 688.104 295.442 687.867C295.572 690.863 295.931 694.061 295.245 696.923C294.24 697.842 294.815 697.491 293.352 697.712C292.925 693.853 293.271 689.627 293.467 685.718Z"/><path fill="#1E1F23" d="M444.025 572.068C442.301 572.048 440.136 572.242 438.734 571.427C438.47 570.049 438.436 569.178 438.341 567.824C435.333 525.176 465.212 482.935 509.87 481.458C522.715 481.033 544.506 485.931 554.151 495.059C571.297 504.51 584.463 530.205 586.81 548.958C587.385 553.552 588.586 566.356 587.743 570.674C586.763 571.849 587.374 571.432 585.754 571.812C583.971 571.411 581.419 571.517 579.532 571.51C579.537 554.254 579.142 544.189 571.699 527.739C558.542 498.66 524.349 480.13 493.279 491.118C488.818 492.695 484.765 495.186 480.484 497.237C458.939 513.504 447.233 534.159 446.34 561.401C446.275 563.389 446.278 570.652 445.51 571.981L444.025 572.068Z"/><path fill="#C74B75" d="M444.025 572.068C444.349 570.891 444.279 561.983 444.312 560.068C444.526 548.93 447.094 537.964 451.848 527.889C456.876 517.057 469.013 501.376 480.484 497.237C458.939 513.504 447.233 534.159 446.34 561.401C446.275 563.389 446.278 570.652 445.51 571.981L444.025 572.068Z"/><path fill="#C74B75" d="M554.151 495.059C571.297 504.51 584.463 530.205 586.81 548.958C587.385 553.552 588.586 566.356 587.743 570.674C586.763 571.849 587.374 571.432 585.754 571.812C585.156 567.403 586 559.347 585.305 553.501C583.302 536.638 578.168 521.682 567.083 508.585C563.282 504.094 558.447 500.207 554.553 495.548L554.151 495.059Z"/><path fill="#1E1F23" d="M432.612 642.512C432.492 639.013 431.923 632.777 433.255 629.697C435.985 628.805 504.246 628.491 507.953 629.137C508.113 633.487 507.994 638.078 507.953 642.449C499.453 642.962 487.706 642.38 478.562 642.651C479.91 659.014 477.919 677.8 478.637 694.394C478.705 695.963 478.321 696.957 476.941 697.75C472.29 697.192 467.057 697.359 462.354 697.485C461.817 691.992 462.097 683.087 462.107 677.382L462.157 642.583C452.313 642.224 442.459 642.201 432.612 642.512Z"/><path fill="#C74B75" d="M476.941 697.75C476.438 695.531 476.413 644.111 476.874 642.834L478.562 642.651C479.91 659.014 477.919 677.8 478.637 694.394C478.705 695.963 478.321 696.957 476.941 697.75Z"/><path fill="#1E1F23" d="M470.958 571.646C469.088 571.69 466.806 571.996 465.24 571.148C464.484 567.944 464.734 565.068 464.644 561.814C463.909 535.202 482.156 509.518 510.003 508.166C519.15 507.722 532.639 510.646 539.645 517.014C553.504 525.883 560.783 544.12 561.608 559.983C561.819 564.03 562.261 567.928 559.981 571.508C559.288 571.83 559.014 572.014 558.277 572.195C557.727 572.154 553.326 571.856 553.27 571.355C552.849 567.603 553.239 563.704 553.187 559.915C553.076 550.697 550.403 541.693 545.467 533.907C536.728 519.942 520.046 511.155 503.544 515.705C498.109 517.203 494.674 519.169 489.945 522.171C477.647 535.06 472.295 547.091 472.59 565.265C472.628 567.594 472.808 568.391 472.297 570.661C471.689 571.197 471.665 571.341 470.958 571.646Z"/><path fill="#CF547E" d="M470.958 571.646C466.986 556.446 475.229 529.562 489.945 522.171C477.647 535.06 472.295 547.091 472.59 565.265C472.628 567.594 472.808 568.391 472.297 570.661C471.689 571.197 471.665 571.341 470.958 571.646Z"/><path fill="#CF547E" d="M539.645 517.014C553.504 525.883 560.783 544.12 561.608 559.983C561.819 564.03 562.261 567.928 559.981 571.508C559.288 571.83 559.014 572.014 558.277 572.195C558.732 570.515 559.057 568.802 559.251 567.072C560.652 554.185 557.245 539.725 549.662 529.204C546.568 524.912 542.925 521.171 539.645 517.014Z"/></svg>